<?xml version="1.0" encoding="utf-8"?>
<svg version="1.1" xmlns="http://www.w3.org/2000/svg" viewBox="0 0 1024 1024">
<defs>
  <linearGradient id="bg" x1="0%" y1="0%" x2="100%" y2="100%">
    <stop offset="0%" style="stop-color:#1a1a2e"/>
    <stop offset="100%" style="stop-color:#16213e"/>
  </linearGradient>
  <linearGradient id="chameleon" gradientUnits="userSpaceOnUse" x1="80" y1="0" x2="700" y2="800">
    <stop offset="0%" style="stop-color:#F15A24"/>
    <stop offset="30%" style="stop-color:#FBB03B"/>
    <stop offset="55%" style="stop-color:#29ABE2"/>
    <stop offset="80%" style="stop-color:#ED1E79"/>
    <stop offset="100%" style="stop-color:#522785"/>
  </linearGradient>
  <filter id="glow">
    <feGaussianBlur stdDeviation="8" result="blur"/>
    <feMerge>
      <feMergeNode in="blur"/>
      <feMergeNode in="SourceGraphic"/>
    </feMerge>
  </filter>
</defs>
<rect width="1024" height="1024" rx="228" ry="228" fill="url(#bg)"/>
<g transform="translate(880, 100) scale(-1.08, 1.08)" filter="url(#glow)">
  <path fill="url(#chameleon)" d="M626.647,316.648c-3.74,10.61,8.734,28.073,25.57,17.466c16.845-10.603,11.229-42.409-2.492-42.409
    c-12.477,7.481-22.452,3.114-31.809-10.6c-9.356-13.729,1.244-24.329,9.98-26.825c8.733-2.499,15.593,4.985,15.593,13.726
    c0,8.733-6.859,8.103-5.615,4.986c1.249-3.115,0-11.849-12.473-9.352c-12.473,2.489,0.626,36.176,19.962,21.828
    c19.336-14.344,13.096-35.555-1.251-48.654c8.106-7.482,4.992-22.458-1.249-27.443c-5.615,1.251-18.088,2.499-24.322-11.229
    c-6.24-13.715,5.612-31.188,19.333-26.195c13.722,4.985,6.864,11.228-2.491,8.113c-9.356-3.128-18.715,25.566,2.491,23.077
    c21.211-2.496,24.325-41.791,6.238-49.902c11.851-8.11,3.744-34.306,13.1-40.543c9.355-6.234,25.576-53.017,23.702-63.617
    c-1.874-10.611-26.822-3.119-41.791,4.985c-14.969,8.111-20.581,38.673-50.521,44.907c-10.607-16.215-66.742-19.963-86.698-24.947
    c-20.612-5.156-49.905-6.234-64.872,1.247c-14.97,7.486-18.71,7.486-18.71-7.481c0-14.976-29.94-47.405-49.899-61.131
    c-19.957-13.718-19.957,4.996-19.957,28.692c0,23.706,1.248,38.673,8.728,47.406c7.485,8.729-9.981,26.195,3.741,38.673
    c13.722,12.477,9.981,18.711,6.241,23.7c-3.741,4.991-31.185,0-36.8,23.706c-5.614,23.696,8.731,34.925,23.704,36.795
    c14.963,1.878,21.204-19.333,13.096-23.7c-8.108-4.367-8.733,0.619-10.603-1.867c-1.875-2.5,3.114-8.113,9.977-5.614
    c6.859,2.486,16.218,15.585,7.485,26.814c-8.733,11.229-17.462,13.096-31.81,9.363c-19.962-2.499-31.81,11.229-33.058,24.944
    c-1.244,13.729,6.237,31.191,23.703,33.677c17.464,2.5,21.211-24.315,8.108-24.944c-13.1-0.619-7.486-9.981,1.248-6.863
    c8.734,3.126,19.336,13.725,9.356,26.821c-9.981,13.099-19.336,14.347-31.81,12.48c-12.474-1.877-18.711,19.952-9.982,27.444
    c8.733,7.481,24.329,3.737,25.577,23.695c1.245,19.963-18.71,21.83-27.443,16.215c-8.736-5.615,0.618-18.082,5.611-13.715
    c4.989,4.363,4.989,10.6,9.355,7.482c4.367-3.119,5.615-11.23-3.118-17.463c-8.731-6.233-21.204-6.233-26.818,4.366
    c-5.616,10.6-9.356,35.544,11.222,40.54c20.587,4.985,16.954,17.462,3.121,16.836c-9.15-0.41-35.763,7.909-29.109,52.819
    c0,0-26.612,22.659-41.582,8.309c-14.97-14.344,4.575-40.536,0.209-77.345c-4.363-36.792-20.585-89.813-66.116-105.408
    c-45.532-15.585-49.898-47.405-44.284-54.257c5.614-6.866-17.462-13.1-25.572,11.218c-8.108,24.326-11.849,81.093,10.603,104.79
    c22.454,23.7,31.81,49.272,18.088,56.757c-13.721,7.482-13.721-17.462-4.988-13.718c8.729,3.737-5.615,4.366-1.252,9.352
    c5.345,6.112,16.222-11.219,3.122-16.834c-13.096-5.615-28.692,11.848-16.844,26.818c11.856,14.976,25.578,9.359,29.944,4.992
    c4.367-4.366,6.859,3.115-1.874,6.23c-8.733,3.122-19.955,3.754-28.07,11.848c-8.106,8.122-12.47,26.199-0.618,35.558
    c11.848,9.359,26.821-13.1,16.84-17.465c-9.98-4.36-10.606,6.869-12.473,4.365c-1.874-2.489,2.493-15.588,13.721-10.61
    c11.226,4.999,8.734,30.579-14.97,31.824c-23.703,1.245-19.962,28.682-40.542,39.292c-20.585,10.596-76.098,27.451-69.235,94.185
    c6.859,66.735,52.391,92.934,78.593,92.934c-1.873,32.429,18.711,94.798,69.232,98.552c44.91,15.589,97.304,8.733,103.537,11.848
    c6.24,3.115,38.051,21.833,33.684-2.503c17.463,8.733,47.407,8.121,40.54-10.596c-6.856-18.718,21.21,4.992,29.943-4.979
    c8.729-9.984,10.603-23.709-11.229-40.563c-21.829-16.827-26.195-32.429-24.947-44.277c1.244-11.848,25.569-51.147,3.118-64.246
    c26.197-5.619,101.042-14.338,119.756-48.018c0,0-2.493,22.445,3.119,30.553c0,0,6.03,15.185-0.622,23.5
    c-6.658,8.33-0.835,24.947,0,22.458c0.831-2.503,7.484-15.797,24.117-7.495c16.635,8.329,7.484,29.119-3.324,29.119
    c-10.817,0-9.982-5.826-2.5-6.661c7.486-0.82,10.815-13.308-5.82-12.474c-16.635,0.835-19.132,77.346,3.327,103.962
    c22.455,26.602,99.797,22.444,101.459,14.963c34.097,7.481,49.067-17.466,42.412-24.113c19.129-5.826,9.154-37.421-14.135-38.255
    c6.651-19.135-13.308-37.422-35.759-44.082c-22.455-6.647-4.162-77.345,5.82-96.48c9.978-19.12,9.978-36.573,12.473-50.715
    c2.496-14.143,35.763-42.42,49.068-54.06c13.308-11.64,10.603-27.444,10.603-27.444c-29.318,3.741-38.047-23.077-31.185-38.054
    c6.859-14.967,21.3-16.89,31.185-10.604c6.863,4.367,8.399,11.834,6.863,17.466c-1.87,6.87-3.327,6.216-5.615,7.481
    c-5.614,3.122-7.486-0.611-2.496-5.611c4.989-4.986-3.741-20.581-15.591-13.092c-11.852,7.481-18.086,33.054,13.098,35.55
    c31.185,2.496,31.185-48.654,20.581-64.249c-10.599-15.586-21.206-19.329-29.935-29.933c-8.733-10.6,1.867-33.687,16.214-29.94
    c14.344,3.748,12.478,12.477,6.864,19.34c-5.615,6.856-5.615-0.629-2.496-5.614C645.362,313.534,630.389,306.048,626.647,316.648z
     M104.16,275.792l0.052-0.525c0.229-0.998,1.237-1.627,2.242-1.401c0.916,0.219,1.526,1.067,1.443,1.985
    c0.035,0.428,0.434,3.306,5.166,9.351c5.125,6.546,15.308,16.736,35.242,31.4c25.688,18.958,30.75,53.724,30.77,79.05
    c0,17.91-2.575,31.26-2.59,31.331v0.013c-0.173,0.897-0.963,1.516-1.845,1.516l-0.349-0.041c-1.011-0.195-1.683-1.182-1.481-2.184
    c-0.018-0.035,2.523-13.071,2.521-30.635c0.027-24.927-5.198-58.451-29.239-76.038C105.929,290.004,104.282,278.222,104.16,275.792
    z M137.847,598.792c-34.306-1.251-26.199-31.817-18.71-40.55c7.48-8.733-9.982-6.856-14.971,2.489c0,0-11.85,36.81-26.195,41.802
    c-14.347,4.993-39.298-18.717-29.943-38.046c9.358-19.344,66.741-35.558,93.563-16.215c26.818,19.33,4.989,36.17-4.366,32.429
    c-9.356-3.754-3.741-14.351,1.866-14.963c5.615-0.64,8.738-6.869-1.244-6.244c-9.978,0.626-18.085,13.099-11.851,23.695
    c6.236,10.611,18.71,12.474,28.69,3.129c9.982-9.373,11.856-23.084,6.863-31.192c-4.989-8.107-1.247-10.61,3.745-3.741
    C170.282,558.242,172.15,600.03,137.847,598.792z M183.552,479.075c-9.818,13.239-27.45,8.642-32.282,5.507
    c-4.829-3.136-10.1-14.643,4.877-4.554c14.974,10.089,29.759-8.274,28.709-20.296c-1.037-12.015-17.724-18.815-26.8-10.2
    c-9.078,8.614-3.23,20.219,7.836,21.394c11.069,1.169,9.866-13.663,3.069-15.505c-7.951-2.162-3.623,4.158-4.85,8.114
    c-1.394,4.498-9.963-6.028-2.381-11.048c8.285-5.493,18.626,1.794,17.768,11.139c-1.202,13.127-18.547,15.978-26.198,8.247
    c-7.649-7.732-6.443-23.975,1.059-28.856c6.94-4.52,16.399-6.271,27.702,0.876C193.36,451.019,193.367,465.836,183.552,479.075z
     M198.881,415.148c-0.302,1.112-1.308,1.849-2.409,1.849l-0.647-0.083c-1.335-0.362-2.121-1.738-1.759-3.06
    c1.902-7.085,2.827-14.865,2.827-23c0.103-39.317-21.715-86.295-51.689-100.267c-27.916-13.28-38.27-42.792-38.398-43.012
    c-0.463-1.296,0.215-2.726,1.516-3.184c1.297-0.466,2.722,0.212,3.185,1.505c0.011,0,0.587,1.669,1.929,4.481
    c1.343,2.823,3.411,6.73,6.293,11.02c5.76,8.58,14.757,18.627,27.6,24.69c32.693,15.651,54.442,63.78,54.55,104.765
    C201.874,399.351,200.925,407.569,198.881,415.148z M215.028,448.05l-3.416-2.913c4.696-5.277,11.685-27.249,11.59-57.397
    c0-11.57-0.976-24.382-3.366-38.072c-8.385-48.453-57.275-70.702-81.323-85.801c-17.866-11.239-22.343-26.984-22.291-38.607
    c0-4.45,0.626-8.322,1.356-11.24l4.359,1.098c-0.653,2.583-1.221,6.108-1.221,10.141c0.049,10.589,3.734,24.367,20.196,34.803
    c23.359,14.852,74.269,37.501,83.345,88.843c2.441,13.937,3.432,27.016,3.432,38.833
    C227.596,418.709,221.133,440.694,215.028,448.05z M314.461,427.066c-9.249,9.748-23.06,4.311-26.661,1.293
    c-3.598-3.017-6.735-12.835,4.388-3.212c11.132,9.637,24.895-3.776,25.229-13.6c0.333-9.818-12.499-16.965-20.688-10.888
    c-8.192,6.076-4.597,16.047,4.244,18.084c8.838,2.031,9.324-10.088,4.005-12.251c-6.22-2.523-3.348,3.011-4.719,6.091
    c-1.573,3.511-7.48-5.848-0.847-9.171c7.238-3.629,14.896,3.282,13.29,10.75c-2.267,10.513-16.58,11.124-22.014,4.116
    c-5.429-7.022-2.863-20.039,3.682-23.251c6.063-2.976,13.888-3.463,22.336,3.421C325.148,405.331,323.701,417.311,314.461,427.066z
     M536.985,115.17c8.132-3.545,20.391,3.863,17.338,14.178c-2.176,7.318-12.213,9.703-16.816,3.049
    c-4.223-6.102,5.448-11.476,5.142-7.646c-0.272,3.366-5.451,6.835,1.217,7.618c5.705,0.647,11.093-10.221,2.364-12.669
    c-8.732-2.461-16.663,4.554-12.404,13.819c4.267,9.268,18.958,9.154,23.379,0.383c4.423-8.778-1.209-27.159-15.598-24.041
    c-14.389,3.109-6.919-4.011-2.312-4.929c4.603-0.915,19.337,0.946,22.768,13.937c3.422,12.985-1.057,24.193-11.772,26.185
    c-10.712,1.975-17.343-2.201-21.235-7.722C524.856,131.367,528.861,118.71,536.985,115.17z M441.784,109.587
    c3.428-12.995,18.161-14.852,22.771-13.938c4.603,0.925,12.069,8.035-2.313,4.927c-14.389-3.116-20.025,15.262-15.602,24.043
    c4.425,8.778,19.114,8.882,23.375-0.382c4.265-9.265-3.671-16.281-12.404-13.823c-8.729,2.451-3.335,13.319,2.37,12.669
    c6.669-0.772,1.489-4.252,1.214-7.618c-0.301-3.83,9.366,1.544,5.146,7.645c-4.611,6.654-14.643,4.273-16.816-3.049
    c-3.056-10.315,9.202-17.72,17.331-14.174c8.133,3.546,12.133,16.193,7.93,22.163c-3.884,5.517-10.519,9.703-21.235,7.721
    C442.845,133.787,438.361,122.579,441.784,109.587z M432.039,121.425c0,0,14.557,33.676,43.249,17.463
    c-0.831,9.98,5.123,19.694,22.871,22.451c18.707,2.917,26.61-15.797,26.61-15.797s19.958,18.293,42.416-0.827
    c16.215,8.729,7.482,53.638-28.278,44.485c-29.328-7.502-16.635-29.102-16.635-29.102c-8.734,9.561-19.128,8.733-25.782,7.485
    c-6.648-1.251-19.126-3.748-24.117-11.229c-7.482,22.869-40.344,22.438-47.401,4.155
    C415.825,136.808,432.039,121.425,432.039,121.425z M527.564,213.26c12.325,2.107,8.934,14.72,3.505,18.76
    c0,0-5.983,9.41,9.289,7.217c15.275-2.194,15.245-22.26,13.521-25.775c-1.725-3.528-0.223-10.058,3.677,0.79
    c3.9,10.857-1.466,22.42-14.097,27.398c-12.634,4.975-29.16-5.083-30.59-11.507C511.44,223.728,515.24,211.164,527.564,213.26z
     M494.416,186.714c-14.14-3.338-17.881-5.827-19.542-8.733c-1.669-2.917-0.417-4.996,1.66-2.917c0,0,7.486,7.071,19.957,7.902
    c12.48,0.831,16.635-4.575,17.879-2.906C515.619,181.718,508.55,190.03,494.416,186.714z M441.604,227.872
    c14.973,3.748,9.981-6.233,9.981-6.233c-4.988-4.575-7.068-17.473,5.405-18.301c12.475-0.831,14.971,12.057,12.891,18.301
    c-2.075,6.233-19.544,14.556-31.605,8.312c-12.057-6.233-16.218-18.293-11.229-28.692c4.991-10.391,5.826-3.747,3.747-0.41
    C428.712,204.176,426.634,224.138,441.604,227.872z M376.968,160.097c-5.267-5.681-3.783-12.936,2.093-15.453
    c5.879-2.517,9.842,5.541,8.537,7.933c-1.303,2.382-4.886,0.428-3.918-1.06c0.967-1.484-3.737-5.927-6.347-1.15
    c-2.618,4.773,4.704,12.658,13.416,7.503c8.716-5.17-2.441-17.035-7.224-18.544c-3.31-1.029-2.886-4.356,3.463-3.213
    c6.356,1.144,14.166,12.088,9.914,20.154C392.641,164.322,382.243,165.771,376.968,160.097z M385.469,435.368
    c-8.108,15.589-27.444,13.725-33.058,11.229c-5.61-2.496-13.1-13.733,4.37-5.611c17.463,8.106,29.936-13.726,26.818-26.199
    c-3.122-12.474-21.833-16.841-29.941-6.23c-8.106,10.596,0,21.825,11.856,21.193c11.847-0.619,8.086-16.041,0.619-16.833
    c-8.734-0.932-3.119,4.986-3.741,9.352c-0.712,4.978-11.507-4.658-4.366-11.229c7.798-7.168,19.918-1.237,20.585,8.733
    c0.936,14.038-16.843,19.963-26.199,13.092c-9.355-6.848-10.82-24.154-3.74-30.552c6.546-5.923,16.217-9.358,29.313-3.741
    C391.082,404.19,393.579,419.772,385.469,435.368z M389.212,346.171c-12.477,4.366-24.95-4.367-24.95-15.586
    c0-11.229,8.733-17.473,17.465-14.348c8.731,3.119,4.989,15.585,1.249,16.837c-3.74,1.248-5.615-4.367-3.119-4.986
    c2.493-0.629,1.87-9.981-5.614-7.485c-7.489,2.489-7.489,18.085,6.859,21.2c14.348,3.119,14.211-20.504,10.603-26.814
    c-2.492-4.367,1.252-7.482,6.859,0C404.178,322.475,401.687,341.804,389.212,346.171z M550.965,267.797
    c0,0-20.79,13.308-62.79-12.898c-16.635,5.413-41.578,8.733-52.805-1.658c-13.721-1.658-16.635-8.733-16.635-8.733
    s-9.981-2.079-9.564-9.15c0.415-7.064,3.32-5.406,4.155-2.489c0,0-0.828,8.313,8.323,7.895c4.155,5.824,9.146,9.978,14.966,8.319
    c7.489,7.064,41.166,6.233,52.394-1.248c5.406,7.902,45.737,27.026,61.541,14.966c8.733,2.917,9.98-1.658,12.06-3.737
    c2.906,0.83,13.721-0.421,17.462-6.655c4.155-7.481,10.808-7.071,9.146-3.743c-1.657,3.326-7.068,9.559-7.068,9.559
    s-9.146,6.244-17.879,5.414C558.449,269.455,550.965,267.797,550.965,267.797z M607.621,444.935
    c3.429,12.995-1.053,24.204-11.768,26.185c-10.708,1.989-17.344-2.197-21.231-7.717c-4.206-5.966-0.201-18.62,7.93-22.166
    c8.132-3.545,20.391,3.873,17.334,14.177c-2.172,7.335-12.21,9.714-16.816,3.052c-4.22-6.104,5.448-11.479,5.146-7.634
    c-0.279,3.351-5.455,6.828,1.213,7.606c5.702,0.654,11.096-10.207,2.364-12.668c-8.729-2.454-16.662,4.554-12.401,13.823
    c4.267,9.275,18.954,9.157,23.379,0.375c4.416-8.774-1.212-27.144-15.602-24.043c-14.389,3.115-6.916-3.998-2.312-4.909
    C589.463,430.098,604.192,431.947,607.621,444.935z M610.135,354.702c-1.143,16.445-18.471,22.069-24.231,22.021
    c-5.765-0.048-16.404-6.9,1.651-6.462c18.056,0.448,20.619-22.994,13.277-32.554c-7.35-9.571-25.077-6.328-28.084,5.827
    c-3.014,12.154,8.163,18.777,18.12,13.812c9.964-4.968,0.963-16.827-5.761-14.72c-7.859,2.461-0.817,5.452,0.281,9.446
    c1.249,4.547-11.639,0.296-7.95-8.024c4.022-9.083,16.663-8.524,20.966-0.181c6.053,11.713-7.022,23.457-17.636,21.058
    c-10.61-2.402-18.339-16.733-14.647-24.892c3.418-7.541,10.448-14.108,23.818-14.174
    C603.303,325.781,611.279,338.258,610.135,354.702z
     M457.557,154.274c0,5.051-4.096,9.15-9.146,9.15c-5.053,0-9.151-4.099-9.151-9.15c0-5.051,4.098-9.143,9.151-9.143C453.462,145.131,457.557,149.223,457.557,154.274z
     M555.693,168.42c0,5.051-4.099,9.14-9.15,9.14c-5.052,0-9.146-4.088-9.146-9.14c0-5.062,4.094-9.15,9.146-9.15C551.594,159.27,555.693,163.358,555.693,168.42z"/>
</g>
</svg>
